<svg width="128" height="108" viewBox="0 0 128 108" fill="none" xmlns="http://www.w3.org/2000/svg">
<g clip-path="url(#clip0_28_3)">
<path d="M17.9624 98.5191H108.213V108H17.9624V98.5191Z" fill="#CDFFCD"/>
<path d="M17.9624 48.6412H108.213V72.9618H17.9624V48.6412Z" fill="#CDFFCD"/>
<path d="M63.9971 10.3827L89.9811 58.8349H38.0132L63.9971 10.3827Z" fill="#CDFFCD"/>
<path d="M52.1063 89.0843C52.1269 89.1367 52.1376 89.215 52.1376 89.3193C52.1376 89.4133 52.1376 89.4916 52.1376 89.5543C52.1376 89.6379 52.122 89.7163 52.0907 89.7892C52.0593 89.8622 52.0173 89.9302 51.9654 89.9928C51.8714 90.1182 51.7354 90.2121 51.5582 90.2748C51.3077 90.3585 51.0728 90.4001 50.8535 90.4001C50.7386 90.4104 50.6186 90.4158 50.4933 90.4158C50.3681 90.4158 50.2428 90.4261 50.1175 90.4471H50.0549C49.2509 90.4574 48.4209 90.4574 47.5649 90.4471C47.356 90.4368 47.1211 90.4368 46.8602 90.4471C46.599 90.4681 46.3435 90.4628 46.0929 90.4314C45.8423 90.4104 45.6124 90.3531 45.4039 90.2591C45.2052 90.1549 45.0643 89.9928 44.9811 89.7735C44.96 89.7212 44.9444 89.6742 44.9341 89.6326C44.9234 89.5802 44.9184 89.5283 44.9184 89.4759C44.8764 89.121 44.8607 88.771 44.8714 88.4264C44.8817 88.0818 44.8871 87.7426 44.8871 87.4083L44.9184 85.137V83.038C44.9184 82.662 44.9184 82.3277 44.9184 82.0355C44.9287 81.7432 44.939 81.4192 44.9497 81.0643V80.986C44.96 80.8817 44.9654 80.777 44.9654 80.6727C44.9757 80.5684 44.9811 80.4637 44.9811 80.3594C45.0017 80.1191 45.0594 79.9155 45.1533 79.7485C45.2159 79.5919 45.3256 79.4666 45.4822 79.3726C45.6178 79.2786 45.7797 79.2316 45.9676 79.2316C46.0406 79.2316 46.1086 79.237 46.1712 79.2473C46.2441 79.2473 46.3121 79.2526 46.3748 79.2629C46.4374 79.2732 46.4947 79.2943 46.547 79.3256C46.6097 79.3569 46.6723 79.3985 46.735 79.4509C46.7976 79.5239 46.8549 79.6129 46.9072 79.7172C46.9488 79.8322 46.9748 79.9468 46.9855 80.0618C46.9958 80.1348 47.0061 80.2028 47.0168 80.2654C47.0271 80.3281 47.0325 80.3907 47.0325 80.4534C47.0115 80.5161 47.0012 80.5787 47.0012 80.6414C47.0012 80.704 47.0012 80.7613 47.0012 80.8137V81.0956L46.9385 88.4734L50.0392 88.5048H50.7752C50.8379 88.5048 50.9055 88.5101 50.9788 88.5204C51.0518 88.5204 51.1247 88.5258 51.198 88.5361C51.2813 88.5464 51.3546 88.5571 51.4173 88.5674C51.4799 88.5777 51.5426 88.5934 51.6052 88.6144C51.7198 88.6457 51.8137 88.6981 51.8871 88.771C52.0016 88.8753 52.075 88.98 52.1063 89.0843ZM55.4407 88.6144L55.4563 87.3769L55.472 85.0743C55.4827 84.74 55.4876 84.3954 55.4876 84.0405C55.4876 83.6856 55.4876 83.3199 55.4876 82.944C55.4876 82.5681 55.4876 82.2337 55.4876 81.9415C55.4876 81.6492 55.4983 81.3203 55.519 80.9547V80.892C55.5297 80.7877 55.5346 80.683 55.5346 80.5787C55.5453 80.4637 55.5503 80.3491 55.5503 80.2341C55.561 80.0461 55.6183 79.8425 55.7225 79.6232C55.7959 79.4769 55.9055 79.3516 56.0514 79.2473C56.2187 79.1636 56.3803 79.1219 56.5369 79.1219C56.6205 79.1219 56.6934 79.1273 56.7561 79.1376C56.8294 79.1376 56.897 79.143 56.9597 79.1533C57.0957 79.1743 57.2156 79.237 57.3198 79.3412C57.3825 79.3936 57.4402 79.4769 57.4921 79.5919C57.5131 79.6545 57.5288 79.7172 57.5391 79.7798C57.5601 79.8322 57.5758 79.8895 57.5861 79.9521C57.5968 80.0251 57.6017 80.0931 57.6017 80.1558C57.6124 80.2184 57.6174 80.2811 57.6174 80.3438C57.6174 80.4167 57.6124 80.4847 57.6017 80.5474C57.6017 80.5997 57.6017 80.657 57.6017 80.7197V80.986L57.5078 89.1157V89.2723C57.5078 89.3036 57.5028 89.3453 57.4921 89.3976C57.4921 89.4392 57.4872 89.4916 57.4764 89.5543C57.4558 89.6066 57.4348 89.6639 57.4138 89.7266C57.4035 89.7789 57.3878 89.8362 57.3668 89.8989C57.3355 89.9512 57.2992 90.0032 57.2572 90.0555C57.2259 90.0971 57.1843 90.1392 57.1319 90.1808C57.0487 90.2645 56.9127 90.3218 56.7248 90.3531C56.4429 90.4158 56.1767 90.3898 55.9261 90.2748C55.8008 90.1911 55.7122 90.0868 55.6599 89.9615C55.6286 89.9302 55.6129 89.8989 55.6129 89.8675C55.6026 89.8465 55.5923 89.8308 55.5816 89.8205C55.5713 89.8102 55.561 89.7946 55.5503 89.7735C55.5297 89.7212 55.514 89.6693 55.5033 89.6169C55.493 89.5543 55.4876 89.4916 55.4876 89.4289C55.4773 89.3766 55.467 89.3246 55.4563 89.2723C55.4563 89.2199 55.4514 89.168 55.4407 89.1157C55.4304 89.032 55.4304 88.9434 55.4407 88.8494V88.6144ZM69.1946 86.5467C69.1946 86.86 69.179 87.1787 69.1476 87.5023C69.1163 87.8155 69.0537 88.1235 68.9597 88.4264C68.8658 88.7187 68.7248 89.0006 68.5369 89.2723C68.349 89.5332 68.0931 89.7632 67.7696 89.9615C67.613 90.0658 67.425 90.1548 67.2058 90.2278C66.9969 90.2905 66.7727 90.3428 66.5324 90.3845C66.3029 90.4368 66.0729 90.4681 65.8434 90.4784C65.6138 90.4995 65.3996 90.5044 65.2013 90.4941C64.2617 90.4628 63.4998 90.2381 62.915 89.8205C62.3409 89.3923 61.8971 88.865 61.5839 88.2385C61.281 87.6119 61.0828 86.933 60.9888 86.2021C60.9051 85.4606 60.8895 84.7557 60.9418 84.0875C60.9731 83.6905 61.0411 83.2626 61.1454 82.803C61.2604 82.3434 61.4219 81.8999 61.6309 81.4716C61.8501 81.0433 62.1163 80.657 62.4295 80.3124C62.753 79.9678 63.1342 79.7069 63.5727 79.5292C63.9799 79.3623 64.4237 79.2576 64.9038 79.2159C65.3946 79.1636 65.8747 79.1792 66.3445 79.2629C66.8246 79.3466 67.2684 79.4979 67.6756 79.7172C68.0931 79.9365 68.4219 80.2287 68.6622 80.5944C68.8291 80.866 68.9597 81.195 69.0537 81.5812C69.1476 81.9675 69.1633 82.3385 69.1007 82.6934C69.0483 83.0067 68.9387 83.2259 68.7718 83.3513C68.6049 83.4663 68.4219 83.5133 68.2237 83.4922C68.0255 83.4609 67.8322 83.3772 67.6443 83.2416C67.4667 83.0953 67.3467 82.9127 67.2841 82.6934C67.2112 82.453 67.1221 82.2337 67.0179 82.0355C66.9136 81.8265 66.7517 81.6542 66.5324 81.5186C66.2819 81.3619 66.0156 81.2733 65.7338 81.2523C65.4622 81.2312 65.196 81.2626 64.9351 81.3463C64.6846 81.4299 64.4443 81.5602 64.2148 81.7379C63.9955 81.9155 63.813 82.1192 63.6667 82.3488C63.489 82.6097 63.3535 82.897 63.2595 83.2103C63.1655 83.5133 63.0975 83.8315 63.0559 84.1658C63.0143 84.4894 62.9986 84.8183 63.0089 85.1526C63.03 85.4762 63.0716 85.7895 63.1342 86.0925C63.2492 86.604 63.4264 87.0847 63.6667 87.5336C63.7606 87.7005 63.8859 87.8522 64.0425 87.9878C64.2094 88.1132 64.3924 88.2174 64.5906 88.3011C64.7888 88.3741 64.9978 88.4211 65.217 88.4421C65.4362 88.4631 65.6452 88.4475 65.8434 88.3951C66.1253 88.3221 66.3548 88.2282 66.5324 88.1132C66.71 87.9878 66.851 87.8415 66.9552 87.6746C67.0595 87.5076 67.1275 87.3246 67.1588 87.1263C67.2004 86.928 67.2215 86.719 67.2215 86.4997V86.4841C67.0859 86.4841 66.9655 86.4841 66.8613 86.4841C66.757 86.4738 66.6787 86.4684 66.6264 86.4684C66.3968 86.4684 66.1722 86.4268 65.953 86.3431C65.7651 86.2805 65.6241 86.1811 65.5302 86.0455C65.4259 85.9305 65.3736 85.7895 65.3736 85.6226C65.3736 85.5599 65.3736 85.5026 65.3736 85.4503C65.3839 85.3876 65.3946 85.3249 65.4049 85.2623C65.4362 85.1786 65.5042 85.0743 65.6085 84.949C65.6711 84.8967 65.7704 84.855 65.906 84.8237C65.9687 84.8027 66.0313 84.787 66.0939 84.7767C66.1566 84.7557 66.2295 84.74 66.3132 84.7297C66.3758 84.7194 66.4438 84.714 66.5168 84.714C66.5897 84.714 66.6631 84.714 66.736 84.714H68.1611C68.276 84.7037 68.4063 84.7194 68.5526 84.761C68.7092 84.7924 68.8291 84.8447 68.9127 84.9177C68.9441 84.9593 68.9754 85.0014 69.0067 85.043C69.038 85.0846 69.064 85.1316 69.085 85.184C69.1266 85.299 69.153 85.4136 69.1633 85.5286C69.1736 85.5912 69.179 85.6592 69.179 85.7322C69.1893 85.7949 69.1946 85.8522 69.1946 85.9045V86.5467ZM81.6814 89.2096C81.6917 89.2723 81.697 89.335 81.697 89.3976C81.7073 89.45 81.7127 89.5126 81.7127 89.5856C81.7127 89.7109 81.676 89.8259 81.6031 89.9302C81.5717 89.9825 81.5301 90.0345 81.4778 90.0868C81.4254 90.1285 81.3628 90.1652 81.2899 90.1965C81.029 90.3428 80.7521 90.3948 80.4599 90.3531C80.3136 90.3115 80.1834 90.2435 80.0684 90.1495C80.0474 90.1285 80.0317 90.1182 80.0214 90.1182C80.0111 90.1079 80.0004 90.0922 79.9901 90.0712C79.9798 90.0609 79.9691 90.0501 79.9588 90.0398C79.9485 90.0188 79.9328 90.0032 79.9118 89.9928C79.8594 89.9405 79.8178 89.8935 79.7865 89.8519C79.7552 89.7995 79.7239 89.7476 79.6925 89.6952C79.6715 89.6429 79.6456 89.5959 79.6142 89.5543C79.5932 89.5019 79.5673 89.45 79.5359 89.3976C79.5149 89.356 79.4943 89.3193 79.4733 89.288C79.4523 89.2463 79.4366 89.2043 79.4263 89.1627C79.3847 89.0687 79.3583 88.985 79.348 88.912L79.0192 88.1445C78.2988 88.1445 77.5784 88.1498 76.8581 88.1601C76.148 88.1601 75.433 88.1548 74.7127 88.1445L74.3838 88.912C74.3628 88.9537 74.3471 88.9957 74.3368 89.0373C74.3368 89.079 74.3265 89.121 74.3055 89.1627C74.2845 89.2043 74.2639 89.2463 74.2429 89.288C74.2326 89.3193 74.2169 89.356 74.1959 89.3976C74.1646 89.45 74.1333 89.5019 74.1019 89.5543C74.0809 89.5959 74.055 89.6429 74.0236 89.6952C74.0026 89.7476 73.9767 89.7995 73.9453 89.8519C73.914 89.8935 73.8724 89.9405 73.8201 89.9928C73.799 90.0032 73.7834 90.0188 73.7731 90.0398C73.7628 90.0501 73.7521 90.0609 73.7418 90.0712C73.7315 90.0922 73.7207 90.1079 73.7104 90.1182C73.7001 90.1182 73.6845 90.1285 73.6635 90.1495C73.5485 90.2435 73.4183 90.3115 73.272 90.3531C72.9798 90.3948 72.7029 90.3428 72.442 90.1965C72.3691 90.1652 72.3064 90.1285 72.2541 90.0868C72.2017 90.0345 72.1601 89.9825 72.1288 89.9302C72.0558 89.8259 72.0192 89.7109 72.0192 89.5856C72.0192 89.5126 72.0192 89.45 72.0192 89.3976C72.0295 89.335 72.0402 89.2723 72.0505 89.2096C72.0715 89.1157 72.0975 89.0217 72.1288 88.9277C72.1601 88.8337 72.1758 88.7867 72.1758 88.7867L75.433 80.7667L75.527 80.5161C75.548 80.4534 75.574 80.3961 75.6053 80.3438C75.6366 80.2914 75.6626 80.2287 75.6836 80.1558C75.7359 80.0202 75.7932 79.8998 75.8559 79.7955C75.8872 79.7329 75.9239 79.6756 75.9655 79.6232C76.0071 79.5709 76.0491 79.5189 76.0908 79.4666C76.1534 79.3829 76.242 79.3153 76.357 79.2629C76.5033 79.2106 76.6702 79.1846 76.8581 79.1846C77.0563 79.1846 77.2286 79.2106 77.3749 79.2629C77.4899 79.3153 77.5785 79.3829 77.6411 79.4666C77.714 79.5605 77.7923 79.6702 77.876 79.7955C77.9386 79.8998 77.9959 80.0202 78.0482 80.1558C78.0693 80.2287 78.0952 80.2914 78.1265 80.3438C78.1579 80.3961 78.1838 80.4534 78.2048 80.5161L78.2988 80.7667L81.5561 88.7867C81.5561 88.7867 81.5717 88.8337 81.6031 88.9277C81.6344 89.0217 81.6603 89.1157 81.6814 89.2096ZM77.97 85.3719C77.8344 85.069 77.6934 84.7557 77.5471 84.4321C77.4116 84.1085 77.2653 83.7796 77.1087 83.4452C77.067 83.3513 77.025 83.2573 76.9834 83.1633C76.9417 83.059 76.8997 82.9597 76.8581 82.8657C76.8268 82.9597 76.7901 83.059 76.7485 83.1633C76.7069 83.2573 76.6648 83.3513 76.6232 83.4452C76.4666 83.7796 76.3154 84.1085 76.1691 84.4321C76.0335 84.7557 75.8975 85.069 75.7619 85.3719L75.48 86.0612H78.2518L77.97 85.3719Z" fill="#CDFFCD"/>
<path d="M17.9839 30.726L62.9891 58.7001L17.9839 86.6737V30.726Z" fill="#CDFFCD"/>
<path d="M108.877 30.726V86.6737L63.8711 58.7001L108.877 30.726Z" fill="#CDFFCD"/>
<path d="M17.9623 32.1527C21.3763 32.1527 24.1439 29.3844 24.1439 25.9695C24.1439 22.5546 21.3763 19.7863 17.9623 19.7863C14.5483 19.7863 11.7808 22.5546 11.7808 25.9695C11.7808 29.3844 14.5483 32.1527 17.9623 32.1527Z" fill="#CDFFCD"/>
<path d="M108.625 32.1527C112.039 32.1527 114.807 29.3844 114.807 25.9695C114.807 22.5546 112.039 19.7863 108.625 19.7863C105.211 19.7863 102.444 22.5546 102.444 25.9695C102.444 29.3844 105.211 32.1527 108.625 32.1527Z" fill="#CDFFCD"/>
<path d="M64.1181 12.3664C67.5321 12.3664 70.2996 9.5981 70.2996 6.18321C70.2996 2.76832 67.5321 0 64.1181 0C60.7041 0 57.9365 2.76832 57.9365 6.18321C57.9365 9.5981 60.7041 12.3664 64.1181 12.3664Z" fill="#CDFFCD"/>
</g>
<defs>
<clipPath id="clip0_28_3">
<rect width="143" height="108" fill="white" transform="translate(-8)"/>
</clipPath>
</defs>
</svg>
