<svg width="128" height="128" viewBox="0 0 128 128" fill="none" xmlns="http://www.w3.org/2000/svg">
<g clip-path="url(#clip0_23_2)">
<rect width="128" height="128" fill="white"/>
<path d="M17.9624 108.519H108.213V118H17.9624V108.519Z" fill="black"/>
<path d="M17.9624 58.6412H108.213V82.9618H17.9624V58.6412Z" fill="black"/>
<path d="M63.9971 20.3827L89.9811 68.8349H38.0132L63.9971 20.3827Z" fill="black"/>
<path d="M52.1063 99.0843C52.1269 99.1367 52.1376 99.215 52.1376 99.3193C52.1376 99.4133 52.1376 99.4916 52.1376 99.5543C52.1376 99.6379 52.122 99.7163 52.0907 99.7892C52.0593 99.8622 52.0173 99.9302 51.9654 99.9928C51.8714 100.118 51.7354 100.212 51.5582 100.275C51.3077 100.358 51.0728 100.4 50.8535 100.4C50.7386 100.41 50.6186 100.416 50.4933 100.416C50.3681 100.416 50.2428 100.426 50.1175 100.447H50.0549C49.2509 100.457 48.4209 100.457 47.5649 100.447C47.356 100.437 47.1211 100.437 46.8602 100.447C46.599 100.468 46.3435 100.463 46.0929 100.431C45.8423 100.41 45.6124 100.353 45.4039 100.259C45.2052 100.155 45.0643 99.9928 44.9811 99.7735C44.96 99.7212 44.9444 99.6742 44.9341 99.6326C44.9234 99.5802 44.9184 99.5283 44.9184 99.4759C44.8764 99.121 44.8607 98.771 44.8714 98.4264C44.8817 98.0818 44.8871 97.7426 44.8871 97.4083L44.9184 95.137V93.038C44.9184 92.662 44.9184 92.3277 44.9184 92.0355C44.9287 91.7432 44.939 91.4192 44.9497 91.0643V90.986C44.96 90.8817 44.9654 90.777 44.9654 90.6727C44.9757 90.5684 44.9811 90.4637 44.9811 90.3594C45.0017 90.1191 45.0594 89.9155 45.1533 89.7485C45.2159 89.5919 45.3256 89.4666 45.4822 89.3726C45.6178 89.2786 45.7797 89.2316 45.9676 89.2316C46.0406 89.2316 46.1086 89.237 46.1712 89.2473C46.2441 89.2473 46.3121 89.2526 46.3748 89.2629C46.4374 89.2732 46.4947 89.2943 46.547 89.3256C46.6097 89.3569 46.6723 89.3985 46.735 89.4509C46.7976 89.5239 46.8549 89.6129 46.9072 89.7172C46.9488 89.8322 46.9748 89.9468 46.9855 90.0618C46.9958 90.1348 47.0061 90.2028 47.0168 90.2654C47.0271 90.3281 47.0325 90.3907 47.0325 90.4534C47.0115 90.5161 47.0012 90.5787 47.0012 90.6414C47.0012 90.704 47.0012 90.7613 47.0012 90.8137V91.0956L46.9385 98.4734L50.0392 98.5048H50.7752C50.8379 98.5048 50.9055 98.5101 50.9788 98.5204C51.0518 98.5204 51.1247 98.5258 51.198 98.5361C51.2813 98.5464 51.3546 98.5571 51.4173 98.5674C51.4799 98.5777 51.5426 98.5934 51.6052 98.6144C51.7198 98.6457 51.8137 98.6981 51.8871 98.771C52.0016 98.8753 52.075 98.98 52.1063 99.0843ZM55.4407 98.6144L55.4563 97.3769L55.472 95.0743C55.4827 94.74 55.4876 94.3954 55.4876 94.0405C55.4876 93.6856 55.4876 93.3199 55.4876 92.944C55.4876 92.5681 55.4876 92.2337 55.4876 91.9415C55.4876 91.6492 55.4983 91.3203 55.519 90.9547V90.892C55.5297 90.7877 55.5346 90.683 55.5346 90.5787C55.5453 90.4637 55.5503 90.3491 55.5503 90.2341C55.561 90.0461 55.6183 89.8425 55.7225 89.6232C55.7959 89.4769 55.9055 89.3516 56.0514 89.2473C56.2187 89.1636 56.3803 89.1219 56.5369 89.1219C56.6205 89.1219 56.6934 89.1273 56.7561 89.1376C56.8294 89.1376 56.897 89.143 56.9597 89.1533C57.0957 89.1743 57.2156 89.237 57.3198 89.3412C57.3825 89.3936 57.4402 89.4769 57.4921 89.5919C57.5131 89.6545 57.5288 89.7172 57.5391 89.7798C57.5601 89.8322 57.5758 89.8895 57.5861 89.9521C57.5968 90.0251 57.6017 90.0931 57.6017 90.1558C57.6124 90.2184 57.6174 90.2811 57.6174 90.3438C57.6174 90.4167 57.6124 90.4847 57.6017 90.5474C57.6017 90.5997 57.6017 90.657 57.6017 90.7197V90.986L57.5078 99.1157V99.2723C57.5078 99.3036 57.5028 99.3453 57.4921 99.3976C57.4921 99.4392 57.4872 99.4916 57.4764 99.5543C57.4558 99.6066 57.4348 99.6639 57.4138 99.7266C57.4035 99.7789 57.3878 99.8362 57.3668 99.8989C57.3355 99.9512 57.2992 100.003 57.2572 100.056C57.2259 100.097 57.1843 100.139 57.1319 100.181C57.0487 100.264 56.9127 100.322 56.7248 100.353C56.4429 100.416 56.1767 100.39 55.9261 100.275C55.8008 100.191 55.7122 100.087 55.6599 99.9615C55.6286 99.9302 55.6129 99.8989 55.6129 99.8675C55.6026 99.8465 55.5923 99.8308 55.5816 99.8205C55.5713 99.8102 55.561 99.7946 55.5503 99.7735C55.5297 99.7212 55.514 99.6693 55.5033 99.6169C55.493 99.5543 55.4876 99.4916 55.4876 99.4289C55.4773 99.3766 55.467 99.3246 55.4563 99.2723C55.4563 99.2199 55.4514 99.168 55.4407 99.1157C55.4304 99.032 55.4304 98.9434 55.4407 98.8494V98.6144ZM69.1946 96.5467C69.1946 96.86 69.179 97.1787 69.1476 97.5023C69.1163 97.8155 69.0537 98.1235 68.9597 98.4264C68.8658 98.7187 68.7248 99.0006 68.5369 99.2723C68.349 99.5332 68.0931 99.7632 67.7696 99.9615C67.613 100.066 67.425 100.155 67.2058 100.228C66.9969 100.29 66.7727 100.343 66.5324 100.384C66.3029 100.437 66.0729 100.468 65.8434 100.478C65.6138 100.499 65.3996 100.504 65.2013 100.494C64.2617 100.463 63.4998 100.238 62.915 99.8205C62.3409 99.3923 61.8971 98.865 61.5839 98.2385C61.281 97.6119 61.0828 96.933 60.9888 96.2021C60.9051 95.4606 60.8895 94.7557 60.9418 94.0875C60.9731 93.6905 61.0411 93.2626 61.1454 92.803C61.2604 92.3434 61.4219 91.8999 61.6309 91.4716C61.8501 91.0433 62.1163 90.657 62.4295 90.3124C62.753 89.9678 63.1342 89.7069 63.5727 89.5292C63.9799 89.3623 64.4237 89.2576 64.9038 89.2159C65.3946 89.1636 65.8747 89.1792 66.3445 89.2629C66.8246 89.3466 67.2684 89.4979 67.6756 89.7172C68.0931 89.9365 68.4219 90.2287 68.6622 90.5944C68.8291 90.866 68.9597 91.195 69.0537 91.5812C69.1476 91.9675 69.1633 92.3385 69.1007 92.6934C69.0483 93.0067 68.9387 93.2259 68.7718 93.3513C68.6049 93.4663 68.4219 93.5133 68.2237 93.4922C68.0255 93.4609 67.8322 93.3772 67.6443 93.2416C67.4667 93.0953 67.3467 92.9127 67.2841 92.6934C67.2112 92.453 67.1221 92.2337 67.0179 92.0355C66.9136 91.8265 66.7517 91.6542 66.5324 91.5186C66.2819 91.3619 66.0156 91.2733 65.7338 91.2523C65.4622 91.2312 65.196 91.2626 64.9351 91.3463C64.6846 91.4299 64.4443 91.5602 64.2148 91.7379C63.9955 91.9155 63.813 92.1192 63.6667 92.3488C63.489 92.6097 63.3535 92.897 63.2595 93.2103C63.1655 93.5133 63.0975 93.8315 63.0559 94.1658C63.0143 94.4894 62.9986 94.8183 63.0089 95.1526C63.03 95.4762 63.0716 95.7895 63.1342 96.0925C63.2492 96.604 63.4264 97.0847 63.6667 97.5336C63.7606 97.7005 63.8859 97.8522 64.0425 97.9878C64.2094 98.1132 64.3924 98.2174 64.5906 98.3011C64.7888 98.3741 64.9978 98.4211 65.217 98.4421C65.4362 98.4631 65.6452 98.4475 65.8434 98.3951C66.1253 98.3221 66.3548 98.2282 66.5324 98.1132C66.71 97.9878 66.851 97.8415 66.9552 97.6746C67.0595 97.5076 67.1275 97.3246 67.1588 97.1263C67.2004 96.928 67.2215 96.719 67.2215 96.4997V96.4841C67.0859 96.4841 66.9655 96.4841 66.8613 96.4841C66.757 96.4738 66.6787 96.4684 66.6264 96.4684C66.3968 96.4684 66.1722 96.4268 65.953 96.3431C65.7651 96.2805 65.6241 96.1811 65.5302 96.0455C65.4259 95.9305 65.3736 95.7895 65.3736 95.6226C65.3736 95.5599 65.3736 95.5026 65.3736 95.4503C65.3839 95.3876 65.3946 95.3249 65.4049 95.2623C65.4362 95.1786 65.5042 95.0743 65.6085 94.949C65.6711 94.8967 65.7704 94.855 65.906 94.8237C65.9687 94.8027 66.0313 94.787 66.0939 94.7767C66.1566 94.7557 66.2295 94.74 66.3132 94.7297C66.3758 94.7194 66.4438 94.714 66.5168 94.714C66.5897 94.714 66.6631 94.714 66.736 94.714H68.1611C68.276 94.7037 68.4063 94.7194 68.5526 94.761C68.7092 94.7924 68.8291 94.8447 68.9127 94.9177C68.9441 94.9593 68.9754 95.0014 69.0067 95.043C69.038 95.0846 69.064 95.1316 69.085 95.184C69.1266 95.299 69.153 95.4136 69.1633 95.5286C69.1736 95.5912 69.179 95.6592 69.179 95.7322C69.1893 95.7949 69.1946 95.8522 69.1946 95.9045V96.5467ZM81.6814 99.2096C81.6917 99.2723 81.697 99.335 81.697 99.3976C81.7073 99.45 81.7127 99.5126 81.7127 99.5856C81.7127 99.7109 81.676 99.8259 81.6031 99.9302C81.5717 99.9825 81.5301 100.034 81.4778 100.087C81.4254 100.128 81.3628 100.165 81.2899 100.196C81.029 100.343 80.7521 100.395 80.4599 100.353C80.3136 100.311 80.1834 100.243 80.0684 100.149C80.0474 100.128 80.0317 100.118 80.0214 100.118C80.0111 100.108 80.0004 100.092 79.9901 100.071C79.9798 100.061 79.9691 100.05 79.9588 100.04C79.9485 100.019 79.9328 100.003 79.9118 99.9928C79.8594 99.9405 79.8178 99.8935 79.7865 99.8519C79.7552 99.7995 79.7239 99.7476 79.6925 99.6952C79.6715 99.6429 79.6456 99.5959 79.6142 99.5543C79.5932 99.5019 79.5673 99.45 79.5359 99.3976C79.5149 99.356 79.4943 99.3193 79.4733 99.288C79.4523 99.2463 79.4366 99.2043 79.4263 99.1627C79.3847 99.0687 79.3583 98.985 79.348 98.912L79.0192 98.1445C78.2988 98.1445 77.5784 98.1498 76.8581 98.1601C76.148 98.1601 75.433 98.1548 74.7127 98.1445L74.3838 98.912C74.3628 98.9537 74.3471 98.9957 74.3368 99.0373C74.3368 99.079 74.3265 99.121 74.3055 99.1627C74.2845 99.2043 74.2639 99.2463 74.2429 99.288C74.2326 99.3193 74.2169 99.356 74.1959 99.3976C74.1646 99.45 74.1333 99.5019 74.1019 99.5543C74.0809 99.5959 74.055 99.6429 74.0236 99.6952C74.0026 99.7476 73.9767 99.7995 73.9453 99.8519C73.914 99.8935 73.8724 99.9405 73.8201 99.9928C73.799 100.003 73.7834 100.019 73.7731 100.04C73.7628 100.05 73.7521 100.061 73.7418 100.071C73.7315 100.092 73.7207 100.108 73.7104 100.118C73.7001 100.118 73.6845 100.128 73.6635 100.149C73.5485 100.243 73.4183 100.311 73.272 100.353C72.9798 100.395 72.7029 100.343 72.442 100.196C72.3691 100.165 72.3064 100.128 72.2541 100.087C72.2017 100.034 72.1601 99.9825 72.1288 99.9302C72.0558 99.8259 72.0192 99.7109 72.0192 99.5856C72.0192 99.5126 72.0192 99.45 72.0192 99.3976C72.0295 99.335 72.0402 99.2723 72.0505 99.2096C72.0715 99.1157 72.0975 99.0217 72.1288 98.9277C72.1601 98.8337 72.1758 98.7867 72.1758 98.7867L75.433 90.7667L75.527 90.5161C75.548 90.4534 75.574 90.3961 75.6053 90.3438C75.6366 90.2914 75.6626 90.2287 75.6836 90.1558C75.7359 90.0202 75.7932 89.8998 75.8559 89.7955C75.8872 89.7329 75.9239 89.6756 75.9655 89.6232C76.0071 89.5709 76.0491 89.5189 76.0908 89.4666C76.1534 89.3829 76.242 89.3153 76.357 89.2629C76.5033 89.2106 76.6702 89.1846 76.8581 89.1846C77.0563 89.1846 77.2286 89.2106 77.3749 89.2629C77.4899 89.3153 77.5785 89.3829 77.6411 89.4666C77.714 89.5605 77.7923 89.6702 77.876 89.7955C77.9386 89.8998 77.9959 90.0202 78.0482 90.1558C78.0693 90.2287 78.0952 90.2914 78.1265 90.3438C78.1579 90.3961 78.1838 90.4534 78.2048 90.5161L78.2988 90.7667L81.5561 98.7867C81.5561 98.7867 81.5717 98.8337 81.6031 98.9277C81.6344 99.0217 81.6603 99.1157 81.6814 99.2096ZM77.97 95.3719C77.8344 95.069 77.6934 94.7557 77.5471 94.4321C77.4116 94.1085 77.2653 93.7796 77.1087 93.4452C77.067 93.3513 77.025 93.2573 76.9834 93.1633C76.9417 93.059 76.8997 92.9597 76.8581 92.8657C76.8268 92.9597 76.7901 93.059 76.7485 93.1633C76.7069 93.2573 76.6648 93.3513 76.6232 93.4452C76.4666 93.7796 76.3154 94.1085 76.1691 94.4321C76.0335 94.7557 75.8975 95.069 75.7619 95.3719L75.48 96.0612H78.2518L77.97 95.3719Z" fill="black"/>
<path d="M17.9839 40.726L62.9891 68.7001L17.9839 96.6737V40.726Z" fill="black"/>
<path d="M108.877 40.726V96.6737L63.8711 68.7001L108.877 40.726Z" fill="black"/>
<path d="M17.9623 42.1527C21.3763 42.1527 24.1439 39.3844 24.1439 35.9695C24.1439 32.5546 21.3763 29.7863 17.9623 29.7863C14.5483 29.7863 11.7808 32.5546 11.7808 35.9695C11.7808 39.3844 14.5483 42.1527 17.9623 42.1527Z" fill="black"/>
<path d="M108.625 42.1527C112.039 42.1527 114.807 39.3844 114.807 35.9695C114.807 32.5546 112.039 29.7863 108.625 29.7863C105.211 29.7863 102.444 32.5546 102.444 35.9695C102.444 39.3844 105.211 42.1527 108.625 42.1527Z" fill="black"/>
<path d="M64.1181 22.3664C67.5321 22.3664 70.2996 19.5981 70.2996 16.1832C70.2996 12.7683 67.5321 10 64.1181 10C60.7041 10 57.9365 12.7683 57.9365 16.1832C57.9365 19.5981 60.7041 22.3664 64.1181 22.3664Z" fill="black"/>
</g>
<defs>
<clipPath id="clip0_23_2">
<rect width="128" height="128" fill="white"/>
</clipPath>
</defs>
</svg>
